<svg width="271" height="271" viewBox="0 0 271 271" fill="none" xmlns="http://www.w3.org/2000/svg">
<path d="M20.0962 2.3067C11.5628 5.24005 7.56285 8.84003 3.56285 16.9734L0.496181 23.1067L0.0961813 131.107C-0.170485 207.24 0.0961813 241.107 1.16285 246.04C3.02952 254.84 8.89618 262.84 16.0962 266.707L21.8295 269.773L132.363 270.173C254.763 270.573 252.23 270.707 261.03 262.173C271.03 252.44 270.496 260.04 270.496 136.307C270.496 15.1067 270.63 18.3067 262.763 10.04C260.763 7.90671 256.763 4.84006 253.83 3.37338C248.496 0.440063 248.363 0.440033 137.83 0.17337C33.2962 -0.226624 26.7629 -0.0932922 20.0962 2.3067ZM210.23 110.707L209.83 160.44L184.896 160.84L159.83 161.107V135.773V110.307L135.563 110.44L111.163 110.707L110.763 85.9067L110.496 61.1067H160.496H210.496L210.23 110.707ZM111.563 184.707L111.163 209.773L86.2295 210.173L61.1629 210.44V185.107V159.773H86.4962H111.83L111.563 184.707Z" fill="#0085F3"/>
</svg>
